# xmcd
#
# Track frame offsets: 
#        150
#        22498
#        44705
#        79172
#        98217
#        131284
#        150732
#        182592
#        201512
#        228302
#        254521
#        279759
#
# Disc length: 4299 seconds
#
# Revision: 0
# Processed by: cddbd v1.5.2PL0 Copyright (c) Steve Scherf et al.
# Submitted via: ExactAudioCopy v0.95b4
#
DISCID=a710c90c
DTITLE=Gary Moore - World Ballads Collection
DYEAR=1900
DGENRE=Blues
TTITLE0=Midnight blues
TTITLE1=Crying in the shadows
TTITLE2=Blues for Narada
TTITLE3=Parisienne walkways (live)
TTITLE4=Empty rooms
TTITLE5=Jumpin' at shadows
TTITLE6=With love
TTITLE7=Still got the blues
TTITLE8=Sill in love with you
TTITLE9=The hurt inside
TTITLE10=We want love
TTITLE11=Surrender
EXTD=
EXTT0=
EXTT1=
EXTT2=
EXTT3=
EXTT4=
EXTT5=
EXTT6=
EXTT7=
EXTT8=
EXTT9=
EXTT10=
EXTT11=
PLAYORDER=
